General
Unique ID                                : 281693847291048392017482930481930283948 (0xD3EAF8C9B7A2D4E1C6F8B9A0E3D2C1B0)
Complete name                            : Star.Wars.Episode.V.The.Empire.Strikes.Back.1980.2160p.DSNP.WEB-DL.DDP5.1.Atmos.DV.HDR.HEVC-FLUX.mkv
Format                                   : Matroska
Format version                           : Version 4
File size                                : 19.4 GiB
Duration                                 : 2 h 4 min
Overall bit rate                         : 22.2 Mb/s
Encoded date                             : UTC 2024-05-18 12:00:00
Writing application                      : mkvmerge v83.0 ('Over The Horizon') 64-bit
Writing library                          : libebml v1.4.5 + libmatroska v1.7.1

Video
ID                                       : 1
Format                                   : HEVC
Format/Info                              : High Efficiency Video Coding
Format profile                           : Main 10@L5.1@High
HDR format                               : Dolby Vision, Version 1.0, dvhe.08.06, BL+RPU, HDR10 compatible / SMPTE ST 2086, HDR10 compatible
Codec ID                                 : V_MPEGH/ISO/HEVC
Duration                                 : 2 h 4 min
Bit rate                                 : 21.1 Mb/s
Width                                    : 3 840 pixels
Height                                   : 2 160 pixels
Display aspect ratio                     : 16:9
Frame rate mode                          : Constant
Frame rate                               : 23.976 (24000/1001) FPS
Color space                              : YUV
Chroma subsampling                       : 4:2:0 (Type 2)
Bit depth                                : 10 bits
Bits/(Pixel*Frame)                       : 0.106
Stream size                              : 18.4 GiB (95%)
Default                                  : Yes
Forced                                   : No
Color range                              : Limited
Color primaries                          : BT.2020
Transfer characteristics                 : PQ
Matrix coefficients                      : BT.2020 non-constant
Mastering display color primaries        : BT.2020
Mastering display luminance              : min: 0.0001 cd/m2, max: 1000 cd/m2
Maximum Content Light Level              : 1000 cd/m2
Maximum Frame-Average Light Level        : 137 cd/m2

Audio #1
ID                                       : 2
Format                                   : E-AC-3 JOC
Format/Info                              : Enhanced AC-3 with Joint Object Coding
Commercial name                          : Dolby Digital Plus with Dolby Atmos
Codec ID                                 : A_EAC3
Duration                                 : 2 h 4 min
Bit rate mode                            : Constant
Bit rate                                 : 768 kb/s
Channel(s)                               : 6 channels
Channel layout                           : L R C LFE Ls Rs
Sampling rate                            : 48.0 kHz
Frame rate                               : 31.250 FPS (1536 SPF)
Compression mode                         : Lossy
Stream size                              : 684 MiB (3%)
Language                                 : English
Service kind                             : Complete Main
Default                                  : Yes
Forced                                   : No

Audio #2
ID                                       : 3
Format                                   : E-AC-3
Format/Info                              : Enhanced AC-3
Commercial name                          : Dolby Digital Plus
Codec ID                                 : A_EAC3
Duration                                 : 2 h 4 min
Bit rate mode                            : Constant
Bit rate                                 : 256 kb/s
Channel(s)                               : 6 channels
Channel layout                           : L R C LFE Ls Rs
Sampling rate                            : 48.0 kHz
Frame rate                               : 31.250 FPS (1536 SPF)
Compression mode                         : Lossy
Stream size                              : 228 MiB (1%)
Language                                 : Spanish (ES)
Service kind                             : Complete Main
Default                                  : No
Forced                                   : No

Audio #3
ID                                       : 4
Format                                   : E-AC-3
Format/Info                              : Enhanced AC-3
Commercial name                          : Dolby Digital Plus
Codec ID                                 : A_EAC3
Duration                                 : 2 h 4 min
Bit rate mode                            : Constant
Bit rate                                 : 256 kb/s
Channel(s)                               : 6 channels
Channel layout                           : L R C LFE Ls Rs
Sampling rate                            : 48.0 kHz
Frame rate                               : 31.250 FPS (1536 SPF)
Compression mode                         : Lossy
Stream size                              : 228 MiB (1%)
Language                                 : French (FR)
Service kind                             : Complete Main
Default                                  : No
Forced                                   : No

Text #1
ID                                       : 5
Format                                   : UTF-8
Codec ID                                 : S_TEXT/UTF8
Codec ID/Info                            : UTF-8 Plain Text
Duration                                 : 2 h 1 min
Bit rate                                 : 48 b/s
Frame rate                               : 0.198 FPS
Count of elements                        : 1441
Stream size                              : 43.2 KiB (0%)
Language                                 : English (US)
Title                                    : English [SDH]
Default                                  : Yes
Forced                                   : No

Text #2
ID                                       : 6
Format                                   : UTF-8
Codec ID                                 : S_TEXT/UTF8
Codec ID/Info                            : UTF-8 Plain Text
Duration                                 : 1 h 58 min
Bit rate                                 : 39 b/s
Frame rate                               : 0.172 FPS
Count of elements                        : 1218
Stream size                              : 34.6 KiB (0%)
Language                                 : Spanish (ES)
Title                                    : Spanish
Default                                  : No
Forced                                   : No

Text #3
ID                                       : 7
Format                                   : UTF-8
Codec ID                                 : S_TEXT/UTF8
Codec ID/Info                            : UTF-8 Plain Text
Duration                                 : 1 h 59 min
Bit rate                                 : 41 b/s
Frame rate                               : 0.181 FPS
Count of elements                        : 1302
Stream size                              : 36.5 KiB (0%)
Language                                 : French (FR)
Title                                    : French
Default                                  : No
Forced                                   : No